<svg width="25" height="24" viewBox="0 0 25 24" fill="none" xmlns="http://www.w3.org/2000/svg">
<path d="M8.625 21.625C9.10825 21.625 9.5 21.2332 9.5 20.75C9.5 20.2668 9.10825 19.875 8.625 19.875C8.14175 19.875 7.75 20.2668 7.75 20.75C7.75 21.2332 8.14175 21.625 8.625 21.625Z" stroke="#021F61" stroke-linecap="round" stroke-linejoin="round"/>
<path d="M20.875 21.625C21.3582 21.625 21.75 21.2332 21.75 20.75C21.75 20.2668 21.3582 19.875 20.875 19.875C20.3918 19.875 20 20.2668 20 20.75C20 21.2332 20.3918 21.625 20.875 21.625Z" stroke="#021F61" stroke-linecap="round" stroke-linejoin="round"/>
<path d="M1.625 2.375H5.125L7.75 17.25H21.75" stroke="#021F61" stroke-linecap="round" stroke-linejoin="round"/>
<path d="M7.75 13.75H21.3913C21.4924 13.7501 21.5905 13.7151 21.6688 13.651C21.7471 13.5868 21.8007 13.4976 21.8205 13.3984L23.3955 5.52336C23.4083 5.45986 23.4067 5.39433 23.391 5.3315C23.3753 5.26867 23.3459 5.21011 23.3048 5.16004C23.2637 5.10997 23.2121 5.06964 23.1535 5.04196C23.095 5.01429 23.031 4.99996 22.9662 5H6" stroke="#021F61" stroke-linecap="round" stroke-linejoin="round"/>
<path d="M14.75 6.02148C13.0592 6.02148 11.6875 7.39323 11.6875 9.08398C11.6875 10.7747 13.0592 12.1465 14.75 12.1465C16.4408 12.1465 17.8125 10.7747 17.8125 9.08398C17.8125 7.39323 16.4408 6.02148 14.75 6.02148Z" fill="#021F61"/>
<path d="M14.75 7.04102V9.33789H16.2813" stroke="#FFFDF7" stroke-width="0.7" stroke-linecap="round" stroke-linejoin="round"/>
</svg>
